<?xml version="1.0" encoding="utf-8"?>
<!-- Generator: Adobe Illustrator 16.0.0, SVG Export Plug-In . SVG Version: 6.00 Build 0)  -->
<!DOCTYPE svg PUBLIC "-//W3C//DTD SVG 1.1//EN" "http://www.w3.org/Graphics/SVG/1.1/DTD/svg11.dtd">
<svg version="1.1" id="Capa_1" xmlns="http://www.w3.org/2000/svg" xmlns:xlink="http://www.w3.org/1999/xlink" x="0px" y="0px"
	 width="980px" height="980px" viewBox="0 0 980 980" enable-background="new 0 0 980 980" xml:space="preserve">
<path fill="#752B8A" d="M979.107,877.088L844.054,90.583c-2.462-14.34-14.894-24.817-29.445-24.817H157.345
	c-14.663,0-27.151,10.636-29.493,25.111L0.382,879.594c-1.398,8.645,1.072,17.468,6.744,24.136s13.994,10.508,22.749,10.508h920.169
	c0.023,0,0.056,0,0.056,0c16.523,0,29.899-13.372,29.899-29.875C980,881.849,979.693,879.415,979.107,877.088z M689.215,271.326
	c-26.255,52.51-82.135,115.105-199.255,115.105s-172.995-62.595-199.25-115.105c-27.489-54.971-27.804-109.651-27.804-111.95
	c0-16.503,13.373-29.875,29.876-29.875c16.472,0,29.828,13.333,29.875,29.792c0.013,0.984,0.682,44.793,22.331,86.974
	c27.395,53.358,76.171,80.413,144.973,80.413c165.399,0,167.304-160.472,167.304-167.303c0-16.503,13.372-29.875,29.876-29.875
	c16.503,0,29.875,13.372,29.875,29.875C717.015,161.675,716.7,216.355,689.215,271.326z"/>
</svg>
